<?xml version="1.0" encoding="UTF-8" standalone="no"?>
<!-- Created with Inkscape (http://www.inkscape.org/) -->

<svg
   width="100"
   height="100"
   viewBox="0 0 26.458333 26.458333"
   version="1.1"
   id="svg1"
   xml:space="preserve"
   sodipodi:docname="python.svg"
   inkscape:export-filename="react.svg"
   inkscape:export-xdpi="300"
   inkscape:export-ydpi="300"
   xmlns:inkscape="http://www.inkscape.org/namespaces/inkscape"
   xmlns:sodipodi="http://sodipodi.sourceforge.net/DTD/sodipodi-0.dtd"
   xmlns:xlink="http://www.w3.org/1999/xlink"
   xmlns="http://www.w3.org/2000/svg"
   xmlns:svg="http://www.w3.org/2000/svg"><sodipodi:namedview
     id="namedview1"
     pagecolor="#ffffff"
     bordercolor="#000000"
     borderopacity="0.25"
     inkscape:showpageshadow="2"
     inkscape:pageopacity="0.0"
     inkscape:pagecheckerboard="0"
     inkscape:deskcolor="#d1d1d1"
     inkscape:document-units="mm"
     inkscape:zoom="1.2573366"
     inkscape:cx="223.09061"
     inkscape:cy="130.83211"
     inkscape:window-width="1280"
     inkscape:window-height="737"
     inkscape:window-x="-8"
     inkscape:window-y="-8"
     inkscape:window-maximized="1"
     inkscape:current-layer="layer1"
     showguides="true"><sodipodi:guide
       position="3.9431362,28.318303"
       orientation="0,-1"
       id="guide1"
       inkscape:locked="false" /><sodipodi:guide
       position="-4.6871242,19.316049"
       orientation="1,0"
       id="guide2"
       inkscape:locked="false" /><sodipodi:guide
       position="67.338105,10.743429"
       orientation="0,-1"
       id="guide3"
       inkscape:locked="false" /><sodipodi:guide
       position="110.05571,30.523997"
       orientation="1,0"
       id="guide4"
       inkscape:locked="false" /></sodipodi:namedview><defs
     id="defs1"><linearGradient
       id="linearGradient10"
       inkscape:collect="always"><stop
         style="stop-color:#ff87fa;stop-opacity:1;"
         offset="0"
         id="stop10" /><stop
         style="stop-color:#af3cff;stop-opacity:1;"
         offset="1"
         id="stop13" /></linearGradient><linearGradient
       inkscape:collect="always"
       xlink:href="#linearGradient10"
       id="linearGradient13"
       x1="39.559799"
       y1="9.4781141"
       x2="64.006569"
       y2="9.4781141"
       gradientUnits="userSpaceOnUse"
       gradientTransform="matrix(0.90495636,0,0,0.90495636,-33.632357,4.6518877)" /></defs><g
     inkscape:label="Layer 1"
     inkscape:groupmode="layer"
     id="layer1"><path
       style="fill:url(#linearGradient13);stroke-width:0.904956"
       d="M 11.497025,25.368325 C 10.559029,25.10789 8.5202521,24.542799 6.9664083,24.112567 5.4125636,23.682334 4.1394674,23.328557 4.1373064,23.326395 c -0.00217,-0.0022 -0.012299,-0.09393 -0.022515,-0.203928 -0.010221,-0.109999 -0.023347,-0.24995 -0.029158,-0.311003 -0.00579,-0.06106 -0.031221,-0.351685 -0.056469,-0.645849 C 4.0039158,21.87145 3.8833784,20.502299 3.761306,19.123057 3.6392337,17.743815 3.446488,15.561802 3.3329821,14.274142 3.2194761,12.98648 3.1174486,11.846657 3.1062543,11.741203 3.0842819,11.534192 3.0068819,10.668632 2.7376376,7.6188702 2.5906835,5.9543073 2.3497552,3.1651721 2.2638658,2.1342002 2.1855598,1.1942325 2.1675386,0.94004029 2.1675386,0.77533493 V 0.6154454 H 13.229166 24.290795 l -0.0058,0.19930577 C 24.277812,1.0605207 24.191682,2.0946735 23.873706,5.7519626 23.261698,12.791257 22.515657,21.138467 22.328701,23.038521 l -0.01142,0.116051 -0.04654,0.04551 c -0.04985,0.04875 -0.158258,0.109465 -0.288735,0.161711 -0.301037,0.120543 -0.977896,0.330311 -1.887091,0.584834 -0.160958,0.04506 -0.419802,0.117683 -0.575209,0.161385 -0.155407,0.0437 -0.343864,0.09603 -0.418793,0.11629 -0.07493,0.02026 -0.231597,0.06347 -0.348154,0.09603 -0.296382,0.0828 -0.979917,0.271717 -1.422886,0.393261 -0.424229,0.116403 -1.496025,0.411918 -1.977913,0.545352 -0.177609,0.04917 -0.488676,0.13472 -0.691261,0.190091 -0.202585,0.05537 -0.61042,0.166874 -0.906301,0.247783 -0.295881,0.08092 -0.541102,0.146639 -0.544935,0.146065 -0.0038,-5.74e-4 -0.774422,-0.214126 -1.712416,-0.47456 z m 1.968283,-4.372872 c 0.273017,-0.06785 0.716042,-0.185207 1.392152,-0.368766 0.166508,-0.0452 0.366317,-0.09944 0.444021,-0.120525 0.211885,-0.05749 0.660192,-0.181199 0.983912,-0.271511 1.890606,-0.527438 2.633237,-0.742997 2.649306,-0.768997 0.02109,-0.03413 0.11318,-0.994315 0.407881,-4.253013 0.160166,-1.771062 0.188623,-2.093023 0.258199,-2.921457 0.0813,-0.96803 0.302,-3.4372323 0.423929,-4.7429534 0.09398,-1.0064113 0.150644,-1.5657366 0.196431,-1.9388806 0.02204,-0.1796501 0.04012,-0.3413957 0.04018,-0.3594341 l 9.1e-5,-0.032795 h -7.032021 c -3.867611,0 -7.0341173,0.00208 -7.036683,0.00471 -0.00258,0.00253 0.010098,0.130853 0.02814,0.285082 0.018032,0.1542296 0.053611,0.5006622 0.079041,0.7698494 0.02543,0.2691884 0.055198,0.5779844 0.06613,0.6862154 0.010943,0.1082301 0.035796,0.3826406 0.055249,0.6098011 0.019433,0.2271608 0.036857,0.4145312 0.038701,0.4163791 0.00185,0.00181 1.2040606,0.019086 2.6715827,0.038316 1.4675213,0.019221 3.0542193,0.040705 3.5259913,0.047745 0.924712,0.013792 4.122672,0.017828 4.263615,0.00534 0.04717,-0.00416 0.09561,-0.010273 0.107626,-0.013565 0.05706,-0.015656 0.07457,0.1063821 0.05457,0.3806581 -0.01301,0.1785062 -0.06105,0.6658822 -0.117249,1.1895093 -0.01936,0.1803827 -0.05122,0.5118847 -0.0708,0.7366717 -0.01958,0.224785 -0.03775,0.418919 -0.04039,0.431406 l -0.0048,0.02271 h -5.055596 c -4.3608586,0 -5.0555959,0.002 -5.0555959,0.01433 0,0.0078 0.020474,0.326896 0.045502,0.70892 0.081936,1.250838 0.1283852,1.726527 0.1998797,2.046834 l 0.033786,0.151371 4.8152912,0.0026 c 2.648412,0.0013 4.815259,0.006 4.815215,0.0101 -4.4e-5,0.0041 -0.01364,0.08022 -0.03022,0.16902 -0.01658,0.08881 -0.03913,0.231849 -0.05013,0.31788 -0.03569,0.279544 -0.12397,1.184329 -0.151625,1.554074 -0.04368,0.58394 -0.135782,1.471747 -0.154583,1.490029 -0.0066,0.0064 -0.08236,0.03049 -0.168388,0.05352 -0.08603,0.02303 -0.219993,0.0595 -0.297697,0.08106 -0.0777,0.02154 -0.236644,0.0648 -0.353199,0.09612 -0.116555,0.03132 -0.327718,0.08866 -0.46925,0.127412 -0.518153,0.14187 -1.728749,0.462791 -1.745768,0.462791 -0.0097,0 -0.393905,-0.09947 -0.853935,-0.221062 -0.460029,-0.121586 -1.142943,-0.30135 -1.517586,-0.399481 -0.374642,-0.09813 -0.684432,-0.181517 -0.688421,-0.185304 -0.01082,-0.0103 -0.08562,-0.479172 -0.103265,-0.647312 -0.01662,-0.158315 -0.03024,-0.418466 -0.04519,-0.862816 -0.0078,-0.231157 -0.0133,-0.297087 -0.03035,-0.36242 -0.054147,-0.207562 -0.1602521,-0.276667 -0.4850209,-0.31592 -0.1032592,-0.01248 -0.3354773,-0.01611 -1.2800771,-0.02 l -1.1539354,-0.0048 0.00546,0.02862 c 0.00299,0.01574 0.00793,0.05814 0.011159,0.09422 0.00319,0.03608 0.0329,0.340332 0.066099,0.676123 0.033189,0.33579 0.083224,0.871644 0.1111593,1.190785 0.056465,0.644984 0.2108285,2.358311 0.2145008,2.380844 0.00124,0.0079 0.013704,0.01769 0.027573,0.0217 0.4638561,0.133982 1.2142807,0.34788 1.538938,0.438653 0.7299116,0.20408 0.8499257,0.23722 2.2049693,0.608865 0.737176,0.202184 1.693021,0.453885 1.932502,0.508883 0.04239,0.0098 0.06763,0.0055 0.28302,-0.04809 z"
       id="path9" /></g></svg>
