<?xml version="1.0" encoding="UTF-8" standalone="no"?>
<!-- Created with Inkscape (http://www.inkscape.org/) -->

<svg
   width="100"
   height="100"
   viewBox="0 0 26.458333 26.458333"
   version="1.1"
   id="svg1"
   xml:space="preserve"
   sodipodi:docname="python.svg"
   inkscape:export-filename="css.svg"
   inkscape:export-xdpi="300"
   inkscape:export-ydpi="300"
   xmlns:inkscape="http://www.inkscape.org/namespaces/inkscape"
   xmlns:sodipodi="http://sodipodi.sourceforge.net/DTD/sodipodi-0.dtd"
   xmlns:xlink="http://www.w3.org/1999/xlink"
   xmlns="http://www.w3.org/2000/svg"
   xmlns:svg="http://www.w3.org/2000/svg"><sodipodi:namedview
     id="namedview1"
     pagecolor="#ffffff"
     bordercolor="#000000"
     borderopacity="0.25"
     inkscape:showpageshadow="2"
     inkscape:pageopacity="0.0"
     inkscape:pagecheckerboard="0"
     inkscape:deskcolor="#d1d1d1"
     inkscape:document-units="mm"
     inkscape:zoom="1.2573366"
     inkscape:cx="223.09061"
     inkscape:cy="130.83211"
     inkscape:window-width="1280"
     inkscape:window-height="737"
     inkscape:window-x="-8"
     inkscape:window-y="-8"
     inkscape:window-maximized="1"
     inkscape:current-layer="layer1"
     showguides="true"><sodipodi:guide
       position="3.9431362,28.318303"
       orientation="0,-1"
       id="guide1"
       inkscape:locked="false" /><sodipodi:guide
       position="-4.6871242,19.316049"
       orientation="1,0"
       id="guide2"
       inkscape:locked="false" /><sodipodi:guide
       position="67.338105,10.743429"
       orientation="0,-1"
       id="guide3"
       inkscape:locked="false" /><sodipodi:guide
       position="110.05571,30.523997"
       orientation="1,0"
       id="guide4"
       inkscape:locked="false" /></sodipodi:namedview><defs
     id="defs1"><linearGradient
       id="linearGradient8"
       inkscape:collect="always"><stop
         style="stop-color:#ff87fa;stop-opacity:1;"
         offset="0"
         id="stop8" /><stop
         style="stop-color:#af3cff;stop-opacity:1;"
         offset="1"
         id="stop9" /></linearGradient><linearGradient
       inkscape:collect="always"
       xlink:href="#linearGradient8"
       id="linearGradient9"
       x1="70.990166"
       y1="12.741228"
       x2="93.928856"
       y2="12.741228"
       gradientUnits="userSpaceOnUse"
       gradientTransform="matrix(0.90734183,0,0,0.90734183,-61.589795,1.668516)" /></defs><g
     inkscape:label="Layer 1"
     inkscape:groupmode="layer"
     id="layer1"><path
       style="fill:url(#linearGradient9);stroke-width:0.453017"
       d="M 12.206812,25.579894 C 11.804951,25.493969 6.2637862,23.073484 5.6401902,22.711468 5.0633367,22.376587 4.4964277,21.620608 4.2986907,20.922574 4.2244248,20.660394 3.8406001,16.535429 3.4457504,11.755986 2.9095821,5.2659059 2.7577766,2.9623727 2.8460755,2.6563781 3.0337047,2.0061551 3.5087607,1.3847512 4.0075547,1.1370859 4.4454088,0.91967955 4.8860221,0.90703029 13.091698,0.87629409 l 8.623975,-0.0323014 0.635423,0.31088251 c 0.649976,0.3180025 1.112659,0.9079979 1.280148,1.6323878 0.09443,0.40842 -1.314169,17.497343 -1.494856,18.135312 -0.197641,0.697855 -0.764514,1.453916 -1.341473,1.789169 -0.27807,0.16158 -1.827046,0.869463 -3.442169,1.573072 -2.815199,1.226411 -2.97622,1.280905 -3.895468,1.318356 -0.527389,0.02149 -1.090098,0.01102 -1.250466,-0.02327 z m 3.627038,-5.19441 c 1.336299,-0.448739 1.834322,-0.742426 2.134088,-1.258475 0.289755,-0.498815 1.477587,-7.339152 1.372097,-7.901456 -0.09887,-0.526972 -0.59602,-1.129431 -1.108853,-1.3437049 -0.302344,-0.126331 -1.248579,-0.163493 -4.162676,-0.163493 -4.215138,0 -3.804357,0.093168 -3.963253,-0.8989552 C 10.063033,8.5557068 10.00074,8.2455683 9.966848,8.1302016 9.908938,7.9330172 10.180486,7.9204188 14.497979,7.9199978 18.86941,7.9195704 19.109553,7.9080938 19.481372,7.6813723 20.626502,6.9831755 20.618053,5.4932512 19.464062,4.631683 19.14025,4.3899245 19.005006,4.3845557 13.238711,4.3845557 c -5.6921038,0 -5.9087408,0.00835 -6.3138598,0.2417322 C 6.6653068,4.7758433 6.3987107,5.0821601 6.2257042,5.4295994 L 5.946075,5.9911778 6.494751,9.0711684 c 0.3239782,1.8186426 0.6348435,3.2266826 0.7590731,3.4381866 0.1157206,0.197007 0.3983376,0.458686 0.6280402,0.581508 0.3805664,0.203487 0.734382,0.223312 3.9853687,0.223312 3.320535,0 3.567247,0.01454 3.560865,0.209756 -0.0036,0.115365 -0.127882,0.883972 -0.275805,1.708015 -0.246224,1.371649 -0.295286,1.51099 -0.580578,1.648934 -0.837125,0.404768 -2.020436,0.399662 -3.008026,-0.01297 -0.361792,-0.151168 -0.422922,-0.240486 -0.495406,-0.723842 -0.258019,-1.720584 -2.4173499,-2.219337 -3.3050545,-0.763384 -0.2890655,0.474101 -0.3013237,1.054833 -0.050203,2.378607 0.2907649,1.532771 0.5018444,1.830579 1.6090437,2.270144 2.4015318,0.953428 4.4064058,1.063052 6.5117648,0.356056 z"
       id="path4" /></g></svg>
