<?xml version="1.0" encoding="UTF-8" standalone="no"?>
<!-- Created with Inkscape (http://www.inkscape.org/) -->

<svg
   width="100"
   height="100"
   viewBox="0 0 26.458333 26.458333"
   version="1.1"
   id="svg1"
   xml:space="preserve"
   inkscape:export-filename="python.svg"
   inkscape:export-xdpi="300"
   inkscape:export-ydpi="300"
   xmlns:inkscape="http://www.inkscape.org/namespaces/inkscape"
   xmlns:sodipodi="http://sodipodi.sourceforge.net/DTD/sodipodi-0.dtd"
   xmlns:xlink="http://www.w3.org/1999/xlink"
   xmlns="http://www.w3.org/2000/svg"
   xmlns:svg="http://www.w3.org/2000/svg"><sodipodi:namedview
     id="namedview1"
     pagecolor="#ffffff"
     bordercolor="#000000"
     borderopacity="0.25"
     inkscape:showpageshadow="2"
     inkscape:pageopacity="0.0"
     inkscape:pagecheckerboard="0"
     inkscape:deskcolor="#d1d1d1"
     inkscape:document-units="mm"
     inkscape:zoom="1.2573366"
     inkscape:cx="223.09061"
     inkscape:cy="130.83211"
     inkscape:window-width="1280"
     inkscape:window-height="737"
     inkscape:window-x="-8"
     inkscape:window-y="-8"
     inkscape:window-maximized="1"
     inkscape:current-layer="layer1"
     showguides="true"><sodipodi:guide
       position="3.9431362,28.318303"
       orientation="0,-1"
       id="guide1"
       inkscape:locked="false" /><sodipodi:guide
       position="-4.6871242,19.316049"
       orientation="1,0"
       id="guide2"
       inkscape:locked="false" /><sodipodi:guide
       position="67.338105,10.743429"
       orientation="0,-1"
       id="guide3"
       inkscape:locked="false" /><sodipodi:guide
       position="110.05571,30.523997"
       orientation="1,0"
       id="guide4"
       inkscape:locked="false" /></sodipodi:namedview><defs
     id="defs1"><linearGradient
       id="linearGradient13"
       inkscape:collect="always"><stop
         style="stop-color:#ff87fa;stop-opacity:1;"
         offset="0"
         id="stop13" /><stop
         style="stop-color:#af3cff;stop-opacity:1;"
         offset="1"
         id="stop14" /></linearGradient><linearGradient
       id="linearGradient6"
       inkscape:collect="always"><stop
         style="stop-color:#ff87fa;stop-opacity:1;"
         offset="0"
         id="stop6" /><stop
         style="stop-color:#af3cff;stop-opacity:1;"
         offset="1"
         id="stop7" /></linearGradient><linearGradient
       inkscape:collect="always"
       xlink:href="#linearGradient6"
       id="linearGradient7"
       x1="41.960922"
       y1="-13.317386"
       x2="52.079159"
       y2="-13.317386"
       gradientUnits="userSpaceOnUse"
       gradientTransform="matrix(2.617647,0,0,2.6567165,-109.69008,48.772302)" /><linearGradient
       inkscape:collect="always"
       xlink:href="#linearGradient13"
       id="linearGradient14"
       x1="-26.725342"
       y1="12.851338"
       x2="-1.5699137"
       y2="12.851338"
       gradientUnits="userSpaceOnUse"
       gradientTransform="translate(27.376794,0.37782831)" /></defs><g
     inkscape:label="Layer 1"
     inkscape:groupmode="layer"
     id="layer1"><rect
       style="fill:url(#linearGradient7);stroke-width:1.39547;stroke-linecap:round;paint-order:markers stroke fill"
       id="rect5"
       width="26.485971"
       height="26.485971"
       x="0.14879794"
       y="0.14879687" /><rect
       style="fill:#ffffff;fill-opacity:1;stroke-width:0.536893;stroke-linecap:round;paint-order:markers stroke fill"
       id="rect16"
       width="15.623747"
       height="16.814129"
       x="8.3326654"
       y="7.4398794" /><path
       style="fill:url(#linearGradient14);stroke-width:0.158627"
       d="m 4.4310532,25.741336 c -1.994852,-0.334575 -3.51312699,-1.948894 -3.74608895,-3.98306 -0.02872,-0.250801 -0.03905,-3.219518 -0.03072,-8.834677 l 0.01255,-8.4569536 0.115412,-0.4187144 C 1.2352542,2.404271 2.4786212,1.1783115 4.1135142,0.76326466 l 0.456489,-0.1158879 h 8.6668028 8.666805 l 0.398715,0.099854 c 1.576805,0.39489174 2.794574,1.51653034 3.286333,3.02691064 0.227874,0.6998881 0.218162,0.2747938 0.218162,9.5481716 v 8.603843 l -0.111129,0.401811 c -0.160664,0.580942 -0.351229,1.010282 -0.640304,1.442599 -0.713598,1.067194 -1.841202,1.78898 -3.088827,1.977176 -0.585001,0.08824 -17.0069488,0.08225 -17.5355128,-0.0064 z m 8.2188048,-4.259184 c 0.782782,-0.300629 1.39031,-0.985058 1.572783,-1.771867 0.05679,-0.244865 0.06349,-0.839726 0.05366,-4.760878 l -0.01123,-4.481052 -0.09196,-0.171853 c -0.109462,-0.20457 -0.336315,-0.412866 -0.544275,-0.499757 -0.221782,-0.09267 -0.607009,-0.08061 -0.834024,0.0261 -0.232482,0.1092785 -0.491793,0.395795 -0.557894,0.616419 -0.03644,0.121623 -0.04935,1.291683 -0.04935,4.470313 0,3.066072 -0.01342,4.335008 -0.0466,4.407839 -0.08144,0.178734 -0.189509,0.195442 -1.266938,0.195877 -0.9803039,3.18e-4 -1.0231319,0.0038 -1.2256488,0.09961 -0.383107,0.181115 -0.60672,0.530963 -0.60672,0.949223 0,0.417529 0.222385,0.76609 0.60672,0.950955 0.2094519,0.100746 0.2122409,0.10092 1.4689508,0.08751 1.226345,-0.01309 1.266211,-0.01616 1.532536,-0.118443 z m 7.344752,3.17e-4 c 0.539185,-0.207814 1.054941,-0.648793 1.338542,-1.144474 0.261932,-0.457809 0.297655,-0.723063 0.297655,-2.21018 0,-1.186723 -0.0089,-1.364451 -0.08291,-1.653785 -0.116542,-0.455677 -0.310609,-0.795604 -0.651565,-1.141292 -0.521521,-0.528759 -1.080355,-0.728351 -2.042992,-0.729668 -0.756485,-0.0011 -0.706042,0.0985 -0.706042,-1.393307 v -1.171407 l 0.103015,-0.103015 0.103015,-0.103015 1.166576,-1.59e-4 c 0.664462,-1.33e-4 1.233004,-0.01868 1.320911,-0.0431 0.267442,-0.07428 0.545534,-0.293619 0.66232,-0.522392 0.08507,-0.166643 0.106348,-0.26868 0.10504,-0.50364 -0.002,-0.344306 -0.09645,-0.563006 -0.333208,-0.7708845 C 20.975851,9.729524 20.962101,9.727737 19.364422,9.743599 c -1.63482,0.01623 -1.673434,0.02273 -2.209208,0.371801 -0.481003,0.313385 -0.79111,0.714055 -0.987829,1.276316 l -0.117472,0.335761 -6.36e-4,1.449639 c -6.34e-4,1.596135 0.0145,1.725697 0.258044,2.211755 0.255682,0.510277 0.801217,0.988662 1.359054,1.19177 0.204062,0.0743 0.379886,0.09564 0.956693,0.116144 l 0.706685,0.02512 0.101233,0.117758 0.101244,0.117756 v 1.128875 c 0,1.196171 -0.01435,1.297495 -0.195468,1.380017 -0.06716,0.03059 -0.508701,0.04674 -1.285949,0.047 -1.157475,4.75e-4 -1.188325,0.0027 -1.39353,0.09979 -0.246973,0.116956 -0.452668,0.320765 -0.543482,0.5385 -0.0893,0.214107 -0.08241,0.641149 0.01375,0.852865 0.09065,0.199578 0.406089,0.490885 0.601707,0.555688 0.09079,0.03008 0.625153,0.04262 1.564849,0.03673 1.412871,-0.0088 1.429684,-0.01 1.700418,-0.114336 z"
       id="path10" /></g></svg>
