<?xml version="1.0" encoding="UTF-8" standalone="no"?>
<!-- Created with Inkscape (http://www.inkscape.org/) -->

<svg
   width="100"
   height="100"
   viewBox="0 0 26.458333 26.458333"
   version="1.1"
   id="svg1"
   xml:space="preserve"
   inkscape:export-filename="typescript.svg"
   inkscape:export-xdpi="300"
   inkscape:export-ydpi="300"
   xmlns:inkscape="http://www.inkscape.org/namespaces/inkscape"
   xmlns:sodipodi="http://sodipodi.sourceforge.net/DTD/sodipodi-0.dtd"
   xmlns:xlink="http://www.w3.org/1999/xlink"
   xmlns="http://www.w3.org/2000/svg"
   xmlns:svg="http://www.w3.org/2000/svg"><sodipodi:namedview
     id="namedview1"
     pagecolor="#ffffff"
     bordercolor="#000000"
     borderopacity="0.25"
     inkscape:showpageshadow="2"
     inkscape:pageopacity="0.0"
     inkscape:pagecheckerboard="0"
     inkscape:deskcolor="#d1d1d1"
     inkscape:document-units="mm"
     inkscape:zoom="1.2573366"
     inkscape:cx="223.09061"
     inkscape:cy="130.83211"
     inkscape:window-width="1280"
     inkscape:window-height="737"
     inkscape:window-x="-8"
     inkscape:window-y="-8"
     inkscape:window-maximized="1"
     inkscape:current-layer="layer1"
     showguides="true"><sodipodi:guide
       position="3.9431362,28.318303"
       orientation="0,-1"
       id="guide1"
       inkscape:locked="false" /><sodipodi:guide
       position="67.338105,10.743429"
       orientation="0,-1"
       id="guide3"
       inkscape:locked="false" /><sodipodi:guide
       position="110.05571,30.523997"
       orientation="1,0"
       id="guide4"
       inkscape:locked="false" /></sodipodi:namedview><defs
     id="defs1"><linearGradient
       id="linearGradient15"
       inkscape:collect="always"><stop
         style="stop-color:#ff87fa;stop-opacity:1;"
         offset="0"
         id="stop15" /><stop
         style="stop-color:#af3cff;stop-opacity:1;"
         offset="1"
         id="stop16" /></linearGradient><linearGradient
       inkscape:collect="always"
       xlink:href="#linearGradient15"
       id="linearGradient16"
       x1="64.183655"
       y1="13.229167"
       x2="89.27475"
       y2="13.229167"
       gradientUnits="userSpaceOnUse"
       gradientTransform="matrix(1.0177909,0,0,1.0177909,-64.86512,-0.23535441)" /></defs><g
     inkscape:label="Layer 1"
     inkscape:groupmode="layer"
     id="layer1"><path
       style="fill:url(#linearGradient16);stroke-width:0.12081"
       d="M 12.158441,25.989852 C 11.651656,25.955929 11.152697,25.882036 10.526697,25.748138 6.2983695,24.843733 2.78219,21.814912 1.2514122,17.758451 0.91372852,16.86361 0.701967,16.033733 0.53363864,14.945589 c -0.0681818,-0.440754 -0.074085,-0.57883 -0.0731283,-1.710094 0.001323,-1.168935 0.005089,-1.25897 0.0865224,-1.795982 C 0.84806272,9.4486295 1.5208438,7.7055041 2.6111737,6.0914579 2.9975241,5.5195292 3.1245016,5.3530287 3.5625476,4.8439497 4.5009814,3.7533201 5.7442038,2.7483813 7.0441415,2.0296497 8.6520163,1.1406608 10.308409,0.638546 12.158443,0.47929708 c 0.696478,-0.0599299 2.152169,-0.0173148 2.852616,0.0835377 2.254757,0.32466969 4.37997,1.23152272 6.100817,2.60329302 1.083013,0.8633239 1.871731,1.6962419 2.611457,2.7578139 1.060321,1.521653 1.753892,3.1870803 2.096623,5.0344823 0.169306,0.912616 0.178781,1.033806 0.177906,2.277071 -6.39e-4,1.24078 -0.01629,1.432225 -0.192147,2.385775 -0.393512,2.133826 -1.375252,4.176921 -2.854705,5.940945 -0.327583,0.390592 -1.061239,1.116033 -1.507571,1.490691 -0.522399,0.438511 -1.254357,0.958905 -1.293599,0.919701 -0.0292,-0.02913 -0.850271,-1.266892 -2.786475,-4.2004 C 13.411463,13.784749 11.247237,10.511646 10.495,9.3847378 9.8665863,8.4433136 9.9287653,8.4886126 9.2656638,8.4891811 8.8376563,8.4895454 8.7930486,8.4949316 8.6828361,8.5633852 8.6171987,8.6039564 8.534493,8.6740639 8.4990403,8.7191264 c -0.063999,0.081371 -0.064447,0.1167486 -0.064447,5.0976256 0,5.50713 -0.014697,5.105567 0.1930851,5.280399 0.097637,0.08216 0.1084487,0.08371 0.57775,0.08371 h 0.4782503 l 0.1335906,-0.124612 0.13359,-0.124614 0.02223,-0.410789 c 0.0122,-0.225938 0.02517,-1.834802 0.02875,-3.575263 0.0039,-1.740461 0.01558,-3.257329 0.02677,-3.370813 l 0.02025,-0.206336 0.378025,0.557943 c 0.207921,0.306876 0.778317,1.147691 1.267558,1.868486 0.48924,0.720802 1.462604,2.159198 2.163031,3.19644 0.863643,1.278937 1.642947,2.384843 2.421398,3.436172 2.105088,2.843006 2.23487,3.017998 2.607644,3.516076 0.203947,0.272502 0.381053,0.512164 0.39357,0.532596 0.01489,0.02435 -0.09586,0.09768 -0.321008,0.212592 -0.946983,0.483305 -2.111746,0.877386 -3.268511,1.105862 -0.847693,0.167433 -1.160395,0.197564 -2.173575,0.209461 -0.536201,0.0064 -1.147519,-1.03e-4 -1.358482,-0.01419 z M 17.829967,8.3894214 c -0.03649,-0.058972 -0.106162,-0.1356539 -0.154898,-0.1703596 -0.113439,-0.080771 -0.421612,-0.113145 -0.78723,-0.082687 -0.26518,0.022106 -0.286545,0.029582 -0.407741,0.1426116 -0.125162,0.1167549 -0.12842,0.1253673 -0.152808,0.4042781 -0.01374,0.1567443 -0.02593,1.6715555 -0.02722,3.3662505 l -0.0025,3.081263 0.791113,1.210432 0.791121,1.210426 0.0081,-4.527473 0.0081,-4.5274737 z"
       id="path9" /></g></svg>
