<?xml version="1.0" encoding="UTF-8" standalone="no"?>
<!-- Created with Inkscape (http://www.inkscape.org/) -->

<svg
   width="100"
   height="100"
   viewBox="0 0 26.458333 26.458333"
   version="1.1"
   id="svg1"
   xml:space="preserve"
   xmlns:inkscape="http://www.inkscape.org/namespaces/inkscape"
   xmlns:sodipodi="http://sodipodi.sourceforge.net/DTD/sodipodi-0.dtd"
   xmlns:xlink="http://www.w3.org/1999/xlink"
   xmlns="http://www.w3.org/2000/svg"
   xmlns:svg="http://www.w3.org/2000/svg"><sodipodi:namedview
     id="namedview1"
     pagecolor="#ffffff"
     bordercolor="#000000"
     borderopacity="0.25"
     inkscape:showpageshadow="2"
     inkscape:pageopacity="0.0"
     inkscape:pagecheckerboard="0"
     inkscape:deskcolor="#d1d1d1"
     inkscape:document-units="mm"
     inkscape:zoom="1.2573366"
     inkscape:cx="223.09061"
     inkscape:cy="130.83211"
     inkscape:window-width="1280"
     inkscape:window-height="737"
     inkscape:window-x="-8"
     inkscape:window-y="-8"
     inkscape:window-maximized="1"
     inkscape:current-layer="layer1"
     showguides="true"><sodipodi:guide
       position="3.9431362,28.318303"
       orientation="0,-1"
       id="guide1"
       inkscape:locked="false" /><sodipodi:guide
       position="-4.6871242,19.316049"
       orientation="1,0"
       id="guide2"
       inkscape:locked="false" /><sodipodi:guide
       position="67.338105,10.743429"
       orientation="0,-1"
       id="guide3"
       inkscape:locked="false" /><sodipodi:guide
       position="110.05571,30.523997"
       orientation="1,0"
       id="guide4"
       inkscape:locked="false" /></sodipodi:namedview><defs
     id="defs1"><linearGradient
       id="linearGradient11"
       inkscape:collect="always"><stop
         style="stop-color:#ff87fa;stop-opacity:1;"
         offset="0"
         id="stop11" /><stop
         style="stop-color:#af3cff;stop-opacity:1;"
         offset="1"
         id="stop12" /></linearGradient><linearGradient
       inkscape:collect="always"
       xlink:href="#linearGradient11"
       id="linearGradient12"
       x1="0.72529572"
       y1="13.158644"
       x2="25.88759"
       y2="13.158644"
       gradientUnits="userSpaceOnUse" /></defs><g
     inkscape:label="Layer 1"
     inkscape:groupmode="layer"
     id="layer1"><path
       style="fill:url(#linearGradient12)"
       d="M 11.720841,25.645242 C 11.284474,25.577982 10.526336,25.393281 10.036091,25.234796 8.6112595,24.774178 7.7210981,24.152444 7.2675858,23.30113 L 7.0433991,22.880297 v -3.535003 -3.535003 l 0.2361846,-0.480966 c 0.3905907,-0.795398 1.1651259,-1.362336 2.1456685,-1.570568 0.2931417,-0.06225 1.7579428,-0.09472 4.2735648,-0.09472 3.610785,0 3.854648,-0.0095 4.306108,-0.168201 1.053057,-0.370119 1.901382,-1.188984 2.353353,-2.271625 0.219667,-0.526186 0.230637,-0.623787 0.274472,-2.4418447 l 0.04566,-1.8937516 0.843252,0.004 c 0.769193,0.00365 0.894086,0.027791 1.422048,0.2748545 1.352593,0.6329548 2.383148,2.211771 2.839617,4.3503128 0.139019,0.651296 0.139019,2.631207 0,3.282503 -0.452727,2.121007 -1.436815,3.652482 -2.770706,4.311877 l -0.641852,0.317293 -4.528474,0.02383 -4.528474,0.02383 v 0.46013 0.460129 h 3.163972 3.163972 l -0.03109,1.241459 c -0.02695,1.076249 -0.05713,1.299723 -0.226756,1.679278 -0.389756,0.872101 -1.396726,1.585403 -2.820628,1.998033 -1.557755,0.45142 -3.286569,0.56891 -4.842453,0.329094 z m 5.556718,-2.011531 c 0.762132,-0.394114 0.754346,-1.57679 -0.01309,-1.988371 -0.991645,-0.531824 -2.066012,0.535347 -1.547809,1.537442 0.269099,0.520381 1.011726,0.734918 1.5609,0.450929 z M 4.0478155,19.311931 C 2.6109383,18.85221 1.4539803,17.329195 0.92213464,15.197296 0.65785576,14.137937 0.66002282,12.173854 0.92665874,11.096954 1.3770665,9.2778276 2.3917629,7.8106248 3.6190231,7.2039226 L 4.2568358,6.8886167 8.7853284,6.8641373 13.313821,6.8396579 V 6.3801786 5.9206993 h -3.16428 -3.1642799 l 0.031801,-1.536043 C 7.0458295,2.9950995 7.0676752,2.8064151 7.246134,2.4061253 7.6950384,1.3992161 8.7063326,0.9394447 11.082887,0.66179707 12.782507,0.4632341 15.248014,0.53688619 16.694654,0.82943741 17.891023,1.0713767 18.838511,1.7512732 19.308128,2.704807 l 0.276115,0.5606387 0.02469,3.3556107 c 0.02121,2.8825079 0.0056,3.4211616 -0.110467,3.8205496 -0.252958,0.870145 -0.834071,1.538599 -1.681728,1.934492 l -0.505,0.235857 -4.166253,0.04533 c -3.5757505,0.0389 -4.2155975,0.06474 -4.5143939,0.182266 -1.1405068,0.448603 -1.920865,1.22817 -2.3222289,2.319873 -0.1559123,0.424079 -0.1817628,0.714498 -0.2133876,2.397328 l -0.035984,1.914793 -0.7705483,-0.0045 C 4.7916257,19.464096 4.3515336,19.409104 4.0478155,19.311931 Z M 10.49685,4.4882486 C 10.664937,4.3843655 10.826609,4.1814041 10.912736,3.9661508 11.359538,2.8494846 10.034447,1.9115246 9.1095514,2.6897732 8.5772319,3.1376906 8.5980768,3.9119483 9.1556351,4.401491 9.5173199,4.7190544 10.065974,4.7545446 10.49685,4.4882486 Z"
       id="path11" /></g></svg>
