<?xml version="1.0" encoding="UTF-8" standalone="no"?>
<!-- Created with Inkscape (http://www.inkscape.org/) -->

<svg
   width="100"
   height="100"
   viewBox="0 0 26.458333 26.458333"
   version="1.1"
   id="svg1"
   xml:space="preserve"
   sodipodi:docname="python.svg"
   xmlns:inkscape="http://www.inkscape.org/namespaces/inkscape"
   xmlns:sodipodi="http://sodipodi.sourceforge.net/DTD/sodipodi-0.dtd"
   xmlns:xlink="http://www.w3.org/1999/xlink"
   xmlns="http://www.w3.org/2000/svg"
   xmlns:svg="http://www.w3.org/2000/svg"><sodipodi:namedview
     id="namedview1"
     pagecolor="#ffffff"
     bordercolor="#000000"
     borderopacity="0.25"
     inkscape:showpageshadow="2"
     inkscape:pageopacity="0.0"
     inkscape:pagecheckerboard="0"
     inkscape:deskcolor="#d1d1d1"
     inkscape:document-units="mm"
     inkscape:zoom="1.2573366"
     inkscape:cx="223.09061"
     inkscape:cy="130.83211"
     inkscape:window-width="1280"
     inkscape:window-height="737"
     inkscape:window-x="-8"
     inkscape:window-y="-8"
     inkscape:window-maximized="1"
     inkscape:current-layer="layer1"
     showguides="true"><sodipodi:guide
       position="3.9431362,28.318303"
       orientation="0,-1"
       id="guide1"
       inkscape:locked="false" /><sodipodi:guide
       position="-4.6871242,19.316049"
       orientation="1,0"
       id="guide2"
       inkscape:locked="false" /><sodipodi:guide
       position="67.338105,10.743429"
       orientation="0,-1"
       id="guide3"
       inkscape:locked="false" /><sodipodi:guide
       position="110.05571,30.523997"
       orientation="1,0"
       id="guide4"
       inkscape:locked="false" /></sodipodi:namedview><defs
     id="defs1"><linearGradient
       id="linearGradient4"
       inkscape:collect="always"><stop
         style="stop-color:#ff87fa;stop-opacity:1;"
         offset="0"
         id="stop4" /><stop
         style="stop-color:#af3cff;stop-opacity:1;"
         offset="1"
         id="stop5" /></linearGradient><linearGradient
       inkscape:collect="always"
       xlink:href="#linearGradient4"
       id="linearGradient5"
       x1="0.39511657"
       y1="13.229167"
       x2="26.063217"
       y2="13.229167"
       gradientUnits="userSpaceOnUse" /></defs><g
     inkscape:label="Layer 1"
     inkscape:groupmode="layer"
     id="layer1"><path
       style="fill:url(#linearGradient5);stroke-width:0.827341"
       d="M 7.4841104,24.616617 C 7.1629739,24.555452 6.7315504,24.348494 6.4681391,24.12925 5.9673752,23.712453 5.6039177,22.942201 5.4364242,21.942806 c -0.049533,-0.295544 -0.062679,-0.554483 -0.061645,-1.214535 0.00149,-0.952561 0.06306,-1.524547 0.2712793,-2.520052 0.066361,-0.317286 0.1206619,-0.587434 0.1206619,-0.60033 0,-0.0129 -0.1770675,-0.07922 -0.3934834,-0.147374 C 4.1501141,17.075294 2.9382904,16.483365 2.0994287,15.861387 1.7623799,15.61148 1.2644505,15.137203 1.0438218,14.85592 0.35298554,13.975165 0.21232599,13.079375 0.62952093,12.217451 1.2324159,10.971873 2.8694937,9.8619483 5.2188625,9.1059197 5.4919355,9.0180445 5.7324038,8.940492 5.753237,8.9335812 5.7787936,8.925101 5.7532677,8.750155 5.6747968,8.3958763 5.4304326,7.2926699 5.3364102,6.3920973 5.3661565,5.4396161 5.425907,3.5262659 6.0265318,2.3524022 7.1554277,1.9426351 8.5176497,1.4481748 10.681768,2.3318138 12.851548,4.2684396 l 0.404996,0.361476 0.132895,-0.1376033 c 0.191147,-0.1979198 0.97524,-0.8706109 1.3018,-1.1168433 0.349514,-0.2635412 0.976985,-0.6727548 1.313576,-0.856667 0.407697,-0.222764 1.04636,-0.484126 1.455247,-0.5955357 0.487144,-0.1327312 1.197615,-0.169499 1.572878,-0.081402 1.311939,0.308004 2.039632,1.7114044 2.039531,3.9333527 -4.2e-5,0.9010094 -0.07243,1.5841896 -0.275608,2.6011001 -0.05556,0.2780716 -0.101016,0.5202597 -0.101016,0.5381957 0,0.017937 0.134824,0.073642 0.29961,0.1237834 0.900059,0.2738894 2.202973,0.8437012 2.857746,1.2497968 0.75975,0.471205 1.434448,1.077404 1.767446,1.588004 0.37104,0.568934 0.517921,1.200907 0.405808,1.74605 -0.05896,0.286686 -0.254026,0.732308 -0.436935,0.998156 -0.491812,0.714825 -1.362366,1.40176 -2.513918,1.98368 -0.679379,0.343313 -0.93377,0.45027 -1.712056,0.719819 -0.410033,0.142009 -0.614284,0.228888 -0.610199,0.259552 0.0034,0.02535 0.04492,0.22329 0.09233,0.439865 0.583925,2.667843 0.257275,5.061371 -0.827842,6.065997 -1.265185,1.171339 -3.645021,0.523838 -6.135969,-1.669462 -0.216574,-0.190697 -0.431127,-0.387348 -0.476783,-0.437005 -0.04565,-0.04966 -0.09717,-0.09028 -0.114477,-0.09028 -0.01731,0 -0.157149,0.117267 -0.310761,0.260594 -1.303876,1.21657 -2.968412,2.183177 -4.182783,2.42897 -0.3823488,0.07739 -1.0024605,0.09372 -1.3129456,0.03458 z M 8.797056,23.452753 c 1.0325646,-0.287245 2.192645,-0.991765 3.383808,-2.054994 0.335814,-0.299748 0.336246,-0.300341 0.27197,-0.373572 -0.03541,-0.04034 -0.18035,-0.204321 -0.322094,-0.364398 C 11.682363,20.153418 11.189657,19.545175 10.742926,18.94654 10.262511,18.302768 10.333771,18.351879 9.8242892,18.313435 9.2146944,18.267435 7.9167425,18.077129 7.1750481,17.925 7.00241,17.88959 6.853124,17.87362 6.8433018,17.88952 c -0.03551,0.05746 -0.2503931,1.15415 -0.3113367,1.588957 -0.08627,0.615504 -0.088246,1.951596 -0.00356,2.402035 0.1699118,0.903671 0.5430473,1.497836 1.0168177,1.619136 0.067031,0.01716 0.1526863,0.03936 0.1903519,0.04932 0.1583232,0.04189 0.7616355,-0.0128 1.0614738,-0.09621 z m 10.231689,0.0023 c 0.845302,-0.413568 1.210649,-2.200245 0.893669,-4.370374 -0.06915,-0.473395 -0.218833,-1.207915 -0.253652,-1.24468 -0.01517,-0.01602 -0.210162,0.01004 -0.433319,0.05791 -0.727207,0.155994 -1.909398,0.336472 -2.782948,0.424856 l -0.254258,0.02572 -0.357915,0.496497 c -0.446198,0.618963 -0.950529,1.259785 -1.42517,1.810874 l -0.365276,0.424109 0.07864,0.08484 c 0.332853,0.359125 1.353765,1.175308 1.910537,1.527408 0.579425,0.366425 1.42156,0.740795 1.900382,0.844811 0.07533,0.01636 0.307976,0.02578 0.516991,0.02092 0.3347,-0.0078 0.402962,-0.02005 0.572321,-0.10291 z m -5.362787,-3.603649 c 0.348299,-0.406407 1.120094,-1.387135 1.09881,-1.396269 -0.0054,-0.0023 -0.685686,0.0036 -1.511819,0.01307 l -1.502059,0.01726 0.19934,0.256808 c 0.427307,0.550495 1.276108,1.53956 1.321955,1.540409 0.01308,2.43e-4 0.190281,-0.19383 0.393773,-0.431273 z m 1.677242,-2.534787 0.24578,-0.01992 0.307117,-0.484211 c 0.660263,-1.040993 1.139455,-1.875172 1.747713,-3.042423 L 17.924155,13.232078 17.714038,12.81292 C 17.244159,11.875584 16.525682,10.630186 15.916953,9.6978877 l -0.349635,-0.5354838 -0.57736,-0.029495 c -0.743181,-0.037967 -2.77348,-0.038008 -3.515843,-6.7e-5 l -0.575847,0.029429 -0.294135,0.4499475 C 9.9696985,10.582734 9.2663039,11.804295 8.7923037,12.758759 l -0.2338661,0.470922 0.2855965,0.573432 c 0.4977862,0.999475 1.0504599,1.956701 1.7305249,2.997256 0.254394,0.389244 0.346669,0.504741 0.405834,0.507969 0.04212,0.0023 0.292295,0.01611 0.555952,0.03069 0.509102,0.02815 3.39264,0.01119 3.806855,-0.02239 z m -2.707007,-1.897303 c -0.502009,-0.147262 -0.872023,-0.392782 -1.193651,-0.792041 -1.004847,-1.247382 -0.423941,-3.117898 1.121036,-3.609727 0.570147,-0.181502 1.159478,-0.130609 1.729176,0.149325 0.371867,0.182725 0.795804,0.609253 0.985259,0.991281 0.353304,0.712425 0.327892,1.559167 -0.06688,2.228682 -0.252222,0.427752 -0.781439,0.849769 -1.260785,1.005397 -0.330833,0.10741 -0.993745,0.121072 -1.31415,0.02709 z M 9.3329827,16.901545 C 8.9729768,16.327112 8.5213512,15.54677 8.104015,14.778073 L 7.9688013,14.52902 7.7374486,15.120484 c -0.3536425,0.904105 -0.6066426,1.670381 -0.5571427,1.687451 0.1914227,0.06601 1.9318313,0.348649 2.1905235,0.355736 l 0.1286391,0.0036 z m 8.3325203,0.160988 c 0.516186,-0.07242 1.653826,-0.287951 1.685136,-0.319262 0.03073,-0.03073 -0.392614,-1.198654 -0.701605,-1.935612 l -0.135087,-0.322187 -0.163767,0.305067 c -0.281083,0.523606 -0.6322,1.138318 -0.999129,1.749211 -0.194287,0.323463 -0.353249,0.597258 -0.353249,0.608432 0,0.01118 0.03467,0.01268 0.07704,0.0034 0.04238,-0.0093 0.308171,-0.04938 0.590659,-0.08901 z M 6.2467501,16.020118 C 6.5411933,15.140132 6.7578888,14.579011 7.1408913,13.70479 L 7.345185,13.23848 7.186688,12.883002 C 6.9152786,12.274283 6.5683996,11.38485 6.3324361,10.692614 c -0.124571,-0.365448 -0.2373318,-0.675111 -0.25058,-0.688139 -0.022835,-0.022454 -1.07646,0.321541 -1.4793354,0.482986 -0.4254452,0.17049 -1.241344,0.5971 -1.6264522,0.850425 -0.7186441,0.472725 -1.138657,0.893081 -1.3556264,1.356733 -0.2753746,0.588462 -0.1129196,1.098683 0.5680805,1.78416 0.5432379,0.546809 1.3059329,1.040932 2.2504725,1.457999 0.5632496,0.248707 1.4852781,0.581067 1.5817031,0.570149 0.052255,-0.006 0.098386,-0.105261 0.2260519,-0.486809 z m 14.7945749,0.254413 c 1.459046,-0.519725 2.532808,-1.122598 3.242202,-1.82036 0.428038,-0.421019 0.692453,-0.887185 0.692453,-1.220797 0,-0.862415 -1.169521,-1.897748 -3.034864,-2.68665 -0.554038,-0.234317 -1.516602,-0.5532773 -1.551466,-0.514103 -0.01446,0.01625 -0.10523,0.264331 -0.201709,0.551291 -0.20735,0.616732 -0.608799,1.64142 -0.868781,2.217542 l -0.18542,0.410893 0.112186,0.239688 c 0.332176,0.709702 0.76982,1.803369 1.077101,2.691666 l 0.113818,0.329029 0.10689,-0.02951 c 0.05879,-0.01623 0.282705,-0.09214 0.49759,-0.168685 z M 8.142469,11.628696 C 8.3373657,11.241388 8.8707133,10.308997 9.2035683,9.7736967 9.3472229,9.5426711 9.4647574,9.345979 9.4647574,9.3366028 c 0,-0.044619 -2.2336214,0.3283269 -2.2871834,0.381889 -0.03728,0.03728 0.7489932,2.2098142 0.799763,2.2098142 0.00794,0 0.082213,-0.134825 0.165132,-0.29961 z m 10.595187,-0.265368 c 0.328331,-0.825239 0.59402,-1.6266689 0.545091,-1.6442273 -0.19406,-0.069646 -2.184213,-0.4100153 -2.255041,-0.3856757 -0.01549,0.00529 0.112373,0.240805 0.284139,0.5232937 0.352024,0.5789423 0.75755,1.2846243 1.007437,1.7531043 0.0924,0.173238 0.178362,0.30421 0.191017,0.29105 0.01266,-0.01316 0.114965,-0.255056 0.227357,-0.537545 z M 19.681561,8.3930327 C 19.943441,7.1912421 20.047268,5.7789947 19.93897,4.8917583 19.820238,3.9190394 19.464093,3.2004913 18.992509,2.982204 18.755838,2.8726533 18.124463,2.8745074 17.733986,2.985927 16.709264,3.2782498 15.44223,4.0761201 14.263446,5.1713764 l -0.251875,0.2340275 0.213351,0.2396881 c 0.576719,0.6479089 1.222561,1.4524934 1.707667,2.1273988 l 0.249315,0.3468592 0.382268,0.041425 c 0.893537,0.096831 1.914197,0.2597575 2.659302,0.4245002 0.197742,0.043717 0.36953,0.074237 0.381749,0.067825 0.01222,-0.00645 0.04657,-0.1234352 0.07634,-0.2600372 z M 7.3547027,8.5571893 C 8.0339599,8.4103299 9.0360326,8.2542065 9.9013659,8.1604183 L 10.286611,8.1186624 10.616922,7.6694083 C 11.15322,6.9399918 11.847143,6.0906168 12.399653,5.4873148 l 0.08175,-0.089265 -0.421167,-0.3694325 C 10.678668,3.8167569 9.3148109,3.0563098 8.2756577,2.9184458 7.9015931,2.8688219 7.5802679,2.912158 7.3569597,3.0424568 6.4485336,3.5723761 6.1918899,5.6407782 6.7302606,8.0933019 c 0.055812,0.2542403 0.107896,0.4815156 0.1157483,0.5050559 0.019558,0.05865 0.063416,0.055101 0.5086938,-0.041169 z M 14.711454,7.9734594 C 14.621129,7.8180078 13.731456,6.7273387 13.415156,6.3843013 L 13.244325,6.1990291 13.08868,6.3671803 c -0.36707,0.3965672 -0.989552,1.1468803 -1.332615,1.6062791 -0.01695,0.022694 0.480352,0.034244 1.474857,0.034244 0.990721,0 1.493669,-0.011632 1.480532,-0.034244 z"
       id="path3" /></g></svg>
