<?xml version="1.0" encoding="UTF-8" standalone="no"?>
<!-- Created with Inkscape (http://www.inkscape.org/) -->

<svg
   width="100"
   height="100"
   viewBox="0 0 26.458333 26.458333"
   version="1.1"
   id="svg1"
   xml:space="preserve"
   inkscape:export-filename="javascript.svg"
   inkscape:export-xdpi="300"
   inkscape:export-ydpi="300"
   xmlns:inkscape="http://www.inkscape.org/namespaces/inkscape"
   xmlns:sodipodi="http://sodipodi.sourceforge.net/DTD/sodipodi-0.dtd"
   xmlns:xlink="http://www.w3.org/1999/xlink"
   xmlns="http://www.w3.org/2000/svg"
   xmlns:svg="http://www.w3.org/2000/svg"><sodipodi:namedview
     id="namedview1"
     pagecolor="#ffffff"
     bordercolor="#000000"
     borderopacity="0.25"
     inkscape:showpageshadow="2"
     inkscape:pageopacity="0.0"
     inkscape:pagecheckerboard="0"
     inkscape:deskcolor="#d1d1d1"
     inkscape:document-units="mm"
     inkscape:zoom="1.2573366"
     inkscape:cx="223.09061"
     inkscape:cy="130.83211"
     inkscape:window-width="1280"
     inkscape:window-height="737"
     inkscape:window-x="-8"
     inkscape:window-y="-8"
     inkscape:window-maximized="1"
     inkscape:current-layer="layer1"
     showguides="true"><sodipodi:guide
       position="3.9431362,28.318303"
       orientation="0,-1"
       id="guide1"
       inkscape:locked="false" /><sodipodi:guide
       position="67.338105,10.743429"
       orientation="0,-1"
       id="guide3"
       inkscape:locked="false" /><sodipodi:guide
       position="110.05571,30.523997"
       orientation="1,0"
       id="guide4"
       inkscape:locked="false" /></sodipodi:namedview><defs
     id="defs1"><linearGradient
       id="linearGradient8"
       inkscape:collect="always"><stop
         style="stop-color:#ff87fa;stop-opacity:1;"
         offset="0"
         id="stop8" /><stop
         style="stop-color:#b441ff;stop-opacity:1;"
         offset="1"
         id="stop9" /></linearGradient><linearGradient
       inkscape:collect="always"
       xlink:href="#linearGradient8"
       id="linearGradient9"
       x1="29.641668"
       y1="14.121953"
       x2="55.740513"
       y2="14.121953"
       gradientUnits="userSpaceOnUse"
       gradientTransform="matrix(1.0285065,0,0,1.0285065,-30.678898,-0.98938333)" /></defs><g
     inkscape:label="Layer 1"
     inkscape:groupmode="layer"
     id="layer1"><path
       style="fill:url(#linearGradient9);stroke-width:1.02851"
       d="M -0.19224988,13.535138 V 0.11372074 H 13.229167 26.650583 V 13.535138 26.956554 H 13.229167 -0.19224988 Z m 10.73451288,4.47599 v -5.367257 h 1.789085 1.789085 V 11.746052 10.848234 H 9.6509959 5.18156 v 0.897818 0.897819 h 1.7890851 1.7890851 v 5.367257 5.367256 h 0.8912657 0.8912671 z m 9.476253,5.329511 c 0.808126,-0.13386 1.488755,-0.485057 2.038476,-1.051833 0.274277,-0.282786 0.467682,-0.554231 0.634596,-0.890651 0.174686,-0.35209 0.281719,-0.690726 0.343495,-1.086775 0.02452,-0.157191 0.02966,-0.243302 0.02976,-0.49806 1.12e-4,-0.323062 -0.01254,-0.464622 -0.06456,-0.722552 -0.20274,-1.005143 -0.821691,-1.867731 -1.71493,-2.389974 -0.385465,-0.225368 -0.783167,-0.363957 -1.286487,-0.448311 -0.112895,-0.01892 -0.296448,-0.02316 -1.323792,-0.03057 -1.170116,-0.0084 -1.195208,-0.0092 -1.323793,-0.03786 -0.356918,-0.07968 -0.65425,-0.238643 -0.900595,-0.481481 -0.247372,-0.243852 -0.403087,-0.520568 -0.489497,-0.869867 -0.03404,-0.137625 -0.03734,-0.171808 -0.03782,-0.393206 -4.06e-4,-0.185669 0.005,-0.268577 0.02316,-0.353885 0.159967,-0.752142 0.743486,-1.309323 1.489937,-1.422689 0.101463,-0.01541 0.343072,-0.01892 1.305099,-0.01899 1.028219,-6.8e-5 1.196529,0.0027 1.304132,0.02113 0.614407,0.105452 1.104221,0.594225 1.211853,1.209279 0.01179,0.06739 0.01922,0.195319 0.01922,0.330947 v 0.2211 h 0.897819 0.89782 l -1.36e-4,-0.206432 c -2.24e-4,-0.341772 -0.03063,-0.612099 -0.09988,-0.88799 -0.314363,-1.252457 -1.348774,-2.213493 -2.617701,-2.432018 -0.292921,-0.05045 -0.417793,-0.05399 -1.718957,-0.04869 -1.228424,0.005 -1.262609,0.0059 -1.441753,0.03458 -0.669194,0.10744 -1.223738,0.349022 -1.736658,0.756557 -0.148853,0.118269 -0.430459,0.401621 -0.553565,0.556995 -0.684329,0.863705 -0.935454,1.984942 -0.683725,3.052731 0.15219,0.645562 0.485286,1.241077 0.957062,1.711053 0.54646,0.544376 1.20092,0.874349 2.003778,1.010289 0.113314,0.01918 0.292636,0.02344 1.323792,0.03142 1.317575,0.01018 1.279567,0.0078 1.5485,0.09773 0.456899,0.152798 0.827181,0.474826 1.040171,0.904619 0.127086,0.256449 0.183282,0.499747 0.183376,0.793931 1.54e-4,0.482318 -0.179691,0.914918 -0.523143,1.25837 -0.271153,0.271153 -0.593966,0.438279 -0.970019,0.502196 -0.184927,0.03143 -2.189345,0.03143 -2.374274,0 -0.250102,-0.0425 -0.519417,-0.152007 -0.732121,-0.297683 -0.136724,-0.09363 -0.359695,-0.319403 -0.450099,-0.455735 -0.186644,-0.281471 -0.310596,-0.655935 -0.310913,-0.939292 l -7.8e-5,-0.06881 h -0.89842 -0.898419 l 0.0077,0.134345 c 0.05363,0.934628 0.386432,1.711351 1.008745,2.354293 0.532123,0.549762 1.195454,0.900508 1.960002,1.036378 0.262369,0.04662 0.386994,0.05038 1.579376,0.04752 1.139228,-0.0028 1.170647,-0.0035 1.343452,-0.03211 z"
       id="path5" /></g></svg>
